<svg data-v-423bf9ae="" xmlns="http://www.w3.org/2000/svg" viewBox="0 0 379.62103592722036 163" class="iconAbove"><!----><!----><!----><g data-v-423bf9ae="" id="d43b73ca-ee77-4b80-aac5-5914de9a9643" fill="black" transform="matrix(4.2105263157894735,0,0,4.2105263157894735,-5.894736082930308,97.10526170856075)"><path d="M5.25 1.40Q6.02 1.40 6.68 1.74Q7.34 2.09 7.72 2.69Q8.11 3.29 8.11 4.05L8.11 4.05Q8.11 4.83 7.69 5.45Q7.27 6.08 6.57 6.38L6.57 6.38Q7.55 6.65 8.11 7.37Q8.68 8.09 8.68 9.16L8.68 9.16Q8.68 10.08 8.27 10.80Q7.85 11.52 7.12 11.93Q6.38 12.33 5.46 12.33L5.46 12.33L1.95 12.33Q1.69 12.33 1.55 12.23Q1.40 12.12 1.40 11.91L1.40 11.91L1.40 1.82Q1.40 1.62 1.52 1.51Q1.64 1.40 1.82 1.40L1.82 1.40L5.25 1.40ZM5.25 6.02Q6.15 6.02 6.71 5.47Q7.27 4.93 7.27 4.05L7.27 4.05Q7.27 3.19 6.71 2.72Q6.16 2.24 5.25 2.24L5.25 2.24L2.24 2.24L2.24 6.02L5.25 6.02ZM5.46 11.49Q6.15 11.49 6.69 11.19Q7.22 10.89 7.53 10.36Q7.84 9.83 7.84 9.16L7.84 9.16Q7.84 8.50 7.53 7.97Q7.22 7.45 6.69 7.15Q6.15 6.86 5.46 6.86L5.46 6.86L2.24 6.86L2.24 11.49L5.46 11.49ZM10.43 1.82Q10.43 1.62 10.55 1.51Q10.67 1.40 10.85 1.40L10.85 1.40Q11.05 1.40 11.16 1.51Q11.27 1.62 11.27 1.82L11.27 1.82L11.27 10.02Q11.27 10.67 11.54 11.08Q11.82 11.49 12.25 11.49L12.25 11.49L12.60 11.49Q12.75 11.49 12.85 11.61Q12.95 11.72 12.95 11.91L12.95 11.91Q12.95 12.10 12.84 12.21Q12.73 12.33 12.53 12.33L12.53 12.33L12.25 12.33Q11.45 12.33 10.94 11.69Q10.43 11.05 10.43 10.02L10.43 10.02L10.43 1.82ZM17.57 4.59Q18.66 4.59 19.56 5.10Q20.45 5.61 20.96 6.51Q21.48 7.41 21.48 8.51L21.48 8.51L21.48 11.91Q21.48 12.10 21.36 12.21Q21.25 12.33 21.06 12.33L21.06 12.33Q20.87 12.33 20.76 12.21Q20.64 12.10 20.64 11.91L20.64 11.91L20.64 10.82Q20.17 11.56 19.37 11.99Q18.56 12.42 17.57 12.42L17.57 12.42Q16.46 12.42 15.57 11.91Q14.67 11.40 14.16 10.50Q13.65 9.60 13.65 8.51L13.65 8.51Q13.65 7.41 14.16 6.51Q14.67 5.61 15.57 5.10Q16.46 4.59 17.57 4.59L17.57 4.59ZM17.57 11.63Q18.44 11.63 19.14 11.23Q19.84 10.82 20.24 10.11Q20.64 9.39 20.64 8.51L20.64 8.51Q20.64 7.63 20.24 6.92Q19.84 6.20 19.14 5.79Q18.44 5.38 17.57 5.38L17.57 5.38Q16.70 5.38 16.00 5.79Q15.30 6.20 14.90 6.92Q14.49 7.63 14.49 8.51L14.49 8.51Q14.49 9.39 14.90 10.11Q15.30 10.82 16.00 11.23Q16.70 11.63 17.57 11.63L17.57 11.63ZM26.75 4.61Q27.65 4.61 28.39 4.96Q29.13 5.31 29.68 5.99L29.68 5.99Q29.78 6.13 29.78 6.23L29.78 6.23Q29.78 6.43 29.58 6.54L29.58 6.54Q29.48 6.62 29.36 6.62L29.36 6.62Q29.16 6.62 29.04 6.45L29.04 6.45Q28.14 5.39 26.75 5.39L26.75 5.39Q25.94 5.39 25.31 5.79Q24.68 6.19 24.34 6.90Q24.00 7.62 24.00 8.51L24.00 8.51Q24.00 9.39 24.37 10.11Q24.75 10.82 25.42 11.23Q26.10 11.63 26.96 11.63L26.96 11.63Q28.20 11.63 28.94 10.95L28.94 10.95Q29.06 10.82 29.23 10.82L29.23 10.82Q29.39 10.82 29.48 10.92L29.48 10.92Q29.62 11.05 29.62 11.23L29.62 11.23Q29.62 11.38 29.51 11.48L29.51 11.48Q29.02 11.93 28.36 12.17Q27.71 12.42 26.96 12.42L26.96 12.42Q25.89 12.42 25.02 11.91Q24.15 11.40 23.65 10.50Q23.16 9.60 23.16 8.51L23.16 8.51Q23.16 7.41 23.62 6.52Q24.08 5.63 24.91 5.12Q25.73 4.61 26.75 4.61L26.75 4.61ZM37.66 11.72Q37.76 11.83 37.76 11.97L37.76 11.97Q37.76 12.12 37.60 12.26L37.60 12.26Q37.46 12.38 37.35 12.38L37.35 12.38Q37.18 12.38 37.06 12.21L37.06 12.21L34.02 8.50L32.72 9.69L32.72 11.91Q32.72 12.10 32.61 12.21Q32.49 12.33 32.30 12.33L32.30 12.33Q32.12 12.33 32.00 12.21Q31.88 12.10 31.88 11.91L31.88 11.91L31.88 1.82Q31.88 1.62 32.00 1.51Q32.12 1.40 32.30 1.40L32.30 1.40Q32.49 1.40 32.61 1.51Q32.72 1.62 32.72 1.82L32.72 1.82L32.72 8.67L37.06 4.72Q37.20 4.61 37.32 4.61L37.32 4.61Q37.46 4.61 37.59 4.75L37.59 4.75Q37.72 4.87 37.72 5.01L37.72 5.01Q37.72 5.15 37.58 5.28L37.58 5.28L34.61 7.98L37.66 11.72ZM54.68 1.40Q54.87 1.40 54.98 1.52Q55.09 1.64 55.09 1.82L55.09 1.82L55.09 11.91Q55.09 12.10 54.98 12.21Q54.87 12.33 54.68 12.33L54.68 12.33Q54.50 12.33 54.38 12.21Q54.25 12.10 54.25 11.91L54.25 11.91L54.25 3.33L49.99 12.00Q49.90 12.19 49.63 12.19L49.63 12.19Q49.38 12.19 49.24 11.93L49.24 11.93L45.00 3.46L45.00 11.91Q45.00 12.10 44.88 12.21Q44.76 12.33 44.58 12.33L44.58 12.33Q44.39 12.33 44.27 12.21Q44.16 12.10 44.16 11.91L44.16 11.91L44.16 1.82Q44.16 1.64 44.27 1.52Q44.39 1.40 44.58 1.40L44.58 1.40Q44.86 1.40 44.95 1.61L44.95 1.61L49.66 10.91L54.31 1.61Q54.43 1.40 54.68 1.40L54.68 1.40ZM61.25 4.59Q62.34 4.59 63.24 5.10Q64.13 5.61 64.64 6.51Q65.16 7.41 65.16 8.51L65.16 8.51Q65.16 9.60 64.64 10.50Q64.13 11.40 63.24 11.91Q62.34 12.42 61.25 12.42L61.25 12.42Q60.14 12.42 59.25 11.91Q58.35 11.40 57.84 10.50Q57.33 9.60 57.33 8.51L57.33 8.51Q57.33 7.41 57.84 6.51Q58.35 5.61 59.25 5.10Q60.14 4.59 61.25 4.59L61.25 4.59ZM61.25 5.38Q60.38 5.38 59.68 5.79Q58.98 6.20 58.58 6.92Q58.17 7.63 58.17 8.51L58.17 8.51Q58.17 9.39 58.58 10.11Q58.98 10.82 59.68 11.23Q60.38 11.63 61.25 11.63L61.25 11.63Q62.12 11.63 62.82 11.23Q63.52 10.82 63.92 10.11Q64.32 9.39 64.32 8.51L64.32 8.51Q64.32 7.63 63.92 6.92Q63.52 6.20 62.82 5.79Q62.12 5.38 61.25 5.38L61.25 5.38ZM70.76 4.58Q71.78 4.58 72.58 5.00Q73.39 5.42 73.84 6.22Q74.30 7.03 74.30 8.15L74.30 8.15L74.30 11.91Q74.30 12.10 74.18 12.21Q74.06 12.33 73.88 12.33L73.88 12.33Q73.70 12.33 73.58 12.21Q73.46 12.10 73.46 11.91L73.46 11.91L73.46 8.15Q73.46 6.82 72.71 6.12Q71.96 5.42 70.76 5.42L70.76 5.42Q70.01 5.42 69.41 5.70Q68.80 5.99 68.45 6.50Q68.10 7.01 68.10 7.63L68.10 7.63L68.10 11.91Q68.10 12.10 67.98 12.21Q67.87 12.33 67.68 12.33L67.68 12.33Q67.49 12.33 67.38 12.21Q67.26 12.10 67.26 11.91L67.26 11.91L67.26 5.10Q67.26 4.90 67.38 4.79Q67.49 4.68 67.68 4.68L67.68 4.68Q67.87 4.68 67.98 4.79Q68.10 4.90 68.10 5.10L68.10 5.10L68.10 5.82Q68.57 5.24 69.26 4.91Q69.94 4.58 70.76 4.58L70.76 4.58ZM79.86 4.61Q80.88 4.61 81.68 5.09Q82.49 5.57 82.94 6.43Q83.38 7.28 83.38 8.37L83.38 8.37Q83.38 8.55 83.27 8.66Q83.16 8.76 82.98 8.76L82.98 8.76L77.11 8.76Q77.15 9.59 77.55 10.24Q77.94 10.89 78.60 11.26Q79.25 11.62 80.07 11.62L80.07 11.62Q80.61 11.62 81.17 11.43Q81.72 11.24 82.04 10.93L82.04 10.93Q82.18 10.82 82.33 10.82L82.33 10.82Q82.49 10.82 82.59 10.91L82.59 10.91Q82.74 11.03 82.74 11.20L82.74 11.20Q82.74 11.34 82.61 11.47L82.61 11.47Q82.17 11.87 81.45 12.14Q80.72 12.40 80.07 12.40L80.07 12.40Q78.96 12.40 78.10 11.91Q77.24 11.41 76.75 10.52Q76.26 9.63 76.26 8.51L76.26 8.51Q76.26 7.38 76.71 6.49Q77.17 5.60 77.99 5.10Q78.81 4.61 79.86 4.61L79.86 4.61ZM79.86 5.39Q78.76 5.39 78.02 6.12Q77.27 6.85 77.13 8.04L77.13 8.04L82.57 8.04Q82.47 6.85 81.73 6.12Q80.99 5.39 79.86 5.39L79.86 5.39ZM91.29 4.69Q91.56 4.80 91.56 5.01L91.56 5.01Q91.56 5.07 91.50 5.21L91.50 5.21L86.80 15.40Q86.67 15.65 86.48 15.65L86.48 15.65Q86.39 15.65 86.28 15.61L86.28 15.61Q86.02 15.50 86.02 15.29L86.02 15.29Q86.02 15.23 86.07 15.09L86.07 15.09L87.47 12.07Q87.46 12.05 87.42 11.97L87.42 11.97L84.35 5.25Q84.29 5.14 84.29 5.03L84.29 5.03Q84.29 4.82 84.53 4.70L84.53 4.70Q84.64 4.65 84.76 4.65L84.76 4.65Q84.97 4.65 85.08 4.89L85.08 4.89L87.92 11.10L90.78 4.90Q90.90 4.65 91.10 4.65L91.10 4.65Q91.20 4.65 91.29 4.69L91.29 4.69Z"></path></g><!----><g data-v-423bf9ae="" id="89d80bd1-3ba0-47cb-b900-76578effa1d8" transform="matrix(2.25,0,0,2.25,136,-9)" stroke="none" fill="black"><path d="M43 20h-2.48a16.93 16.93 0 00-2-4.85l1.75-1.76a1 1 0 00.3-.7 1 1 0 00-.3-.71L36 7.74a1 1 0 00-1.41 0l-1.74 1.75a16.93 16.93 0 00-4.85-2V5a1 1 0 00-1-1h-6a1 1 0 00-1 1v2.48a16.93 16.93 0 00-4.85 2l-1.76-1.74a1 1 0 00-.7-.3 1 1 0 00-.71.3L7.74 12a1 1 0 00-.3.71 1 1 0 00.3.7l1.75 1.76a16.93 16.93 0 00-2 4.85H5a1 1 0 00-1 1v6a1 1 0 001 1h2.48a16.93 16.93 0 002 4.85l-1.74 1.74a1 1 0 000 1.41L12 40.26a1 1 0 001.41 0l1.76-1.75a16.93 16.93 0 004.85 2V43a1 1 0 001 1h6a1 1 0 001-1v-2.48a16.93 16.93 0 004.85-2l1.76 1.75a1 1 0 001.41 0L40.26 36a1 1 0 000-1.41l-1.75-1.76a16.93 16.93 0 002-4.85H43a1 1 0 001-1V21a1 1 0 00-1-1zM24 36a12 12 0 1112-12 12 12 0 01-12 12z"></path><path d="M24 14a10 10 0 1010 10 10 10 0 00-10-10zm3 9a1 1 0 011 1v4a1 1 0 01-1 1h-2v1a1 1 0 01-2 0v-1h-2a1 1 0 010-2h5v-2h-5a1 1 0 01-1-1v-4a1 1 0 011-1h2v-1a1 1 0 012 0v1h2a1 1 0 010 2h-5v2z"></path></g><!----></svg>