<svg data-v-423bf9ae="" xmlns="http://www.w3.org/2000/svg" viewBox="0 0 475 112" class="iconLeftSlogan"><g data-v-423bf9ae="" id="22aa7a3e-ae33-49fb-9827-bf777f4bdb03" fill="black" transform="matrix(4.885993591588033,0,0,4.885993591588033,122.63821933029215,-3.957655714905094)"><path d="M9.90 7.16L9.90 7.16Q11.59 7.95 11.59 9.45L11.59 9.45Q11.59 10.79 10.54 11.67L10.54 11.67Q9.14 12.84 6.72 12.84L6.72 12.84Q4.92 12.84 3.39 12.16L3.39 12.16Q1.89 11.49 1.11 10.29L1.11 10.29Q0.54 9.43 0.54 8.87L0.54 8.87Q0.54 8.66 1.09 8.51L1.09 8.51Q1.64 9.29 3.06 9.84L3.06 9.84Q3.49 9.27 4.22 8.21Q4.95 7.15 5.36 6.56Q5.77 5.97 6.18 5.42L6.18 5.42Q7.09 4.21 7.76 3.59L7.76 3.59Q7.96 3.38 8.38 3.58L8.38 3.58Q8.49 3.62 8.56 3.68L8.56 3.68Q7.99 4.26 7.03 5.97L7.03 5.97Q7.66 6.12 8.13 6.12Q8.60 6.12 9.06 6.01Q9.53 5.91 9.91 5.70L9.91 5.70Q10.79 5.24 10.79 4.57L10.79 4.57Q10.79 3.27 8.80 2.78L8.80 2.78Q8.03 2.58 7.25 2.58Q6.47 2.58 5.79 2.68Q5.11 2.79 4.57 3.01L4.57 3.01Q3.40 3.51 3.40 4.43L3.40 4.43Q3.40 5.20 3.97 5.73L3.97 5.73Q3.35 6.39 2.98 6.39L2.98 6.39Q2.56 6.39 2.19 5.93L2.19 5.93Q1.81 5.46 1.81 4.90Q1.81 4.34 2.05 3.92Q2.28 3.49 2.69 3.16Q3.09 2.83 3.62 2.58Q4.15 2.34 4.74 2.17L4.74 2.17Q5.90 1.85 6.82 1.85Q7.75 1.85 8.36 1.93Q8.98 2.01 9.54 2.17Q10.10 2.34 10.58 2.58Q11.06 2.83 11.42 3.17L11.42 3.17Q12.16 3.88 12.16 4.87L12.16 4.87Q12.16 5.66 11.50 6.29L11.50 6.29Q10.90 6.87 9.90 7.16ZM4.63 10.30L4.63 10.30Q5.43 10.46 5.93 10.46Q6.42 10.46 6.76 10.44Q7.10 10.41 7.50 10.30Q7.90 10.19 8.19 9.99L8.19 9.99Q8.82 9.57 8.82 8.83L8.82 8.83Q8.82 8.11 8.09 7.66L8.09 7.66Q7.42 7.24 6.36 7.20L6.36 7.20Q6.13 7.62 5.91 8.05Q5.68 8.47 5.46 8.87L5.46 8.87Q5.00 9.72 4.63 10.30ZM17.92 3.16L17.92 3.16Q18.68 3.16 18.68 4.44L18.68 4.44Q18.68 6.13 16.63 8.00L16.63 8.00Q15.85 8.72 14.98 9.24L14.98 9.24Q15.07 10.29 15.76 10.45L15.76 10.45Q15.98 10.49 16.27 10.49Q16.57 10.49 16.92 10.41Q17.26 10.34 17.60 10.16L17.60 10.16Q18.36 9.77 18.87 9.00L18.87 9.00Q19.17 8.98 19.17 9.25L19.17 9.25Q19.17 9.36 19.03 9.71Q18.88 10.06 18.48 10.61Q18.09 11.17 17.53 11.62L17.53 11.62Q16.26 12.66 14.71 12.66L14.71 12.66Q12.92 12.66 12.54 11.13L12.54 11.13Q12.42 10.65 12.42 10.06Q12.42 9.47 12.60 8.87Q12.78 8.26 13.08 7.67Q13.38 7.08 13.78 6.51Q14.18 5.95 14.63 5.45Q15.07 4.95 15.54 4.53Q16.00 4.11 16.44 3.80L16.44 3.80Q17.38 3.16 17.92 3.16ZM14.98 8.42L14.98 8.42Q16.13 7.70 16.92 6.69L16.92 6.69Q17.72 5.67 17.72 4.89L17.72 4.89Q17.72 4.50 17.55 4.33L17.55 4.33Q17.50 4.27 17.36 4.27Q17.23 4.27 16.98 4.45Q16.73 4.62 16.47 4.92Q16.21 5.22 15.97 5.63Q15.72 6.04 15.51 6.49L15.51 6.49Q15.06 7.53 14.98 8.42ZM22.03 11.57L22.03 11.57Q21.10 12.66 19.75 12.66L19.75 12.66Q18.89 12.66 18.38 12.15L18.38 12.15Q17.88 11.64 17.88 10.81L17.88 10.81Q17.88 9.77 18.70 8.78L18.70 8.78Q19.49 7.83 20.77 7.23L20.77 7.23Q22.11 6.60 23.53 6.60L23.53 6.60Q24.07 6.60 24.30 6.77L24.30 6.77Q24.49 6.56 24.63 6.52Q24.78 6.48 24.86 6.48L24.86 6.48Q25.12 6.48 25.42 6.56L25.42 6.56Q25.39 6.64 25.30 6.86Q25.21 7.08 25.10 7.37Q24.99 7.66 24.87 8.01L24.87 8.01Q24.42 9.26 24.42 9.87Q24.42 10.49 24.81 10.49L24.81 10.49Q25.32 10.49 25.94 10.04L25.94 10.04Q26.50 9.62 26.91 9.00L26.91 9.00Q27.22 8.98 27.22 9.25L27.22 9.25Q27.22 9.48 26.94 9.96Q26.65 10.44 26.39 10.79Q26.12 11.14 25.79 11.47Q25.46 11.81 25.09 12.07L25.09 12.07Q24.27 12.66 23.48 12.66L23.48 12.66Q22.48 12.66 22.14 12.06L22.14 12.06Q22.03 11.87 22.03 11.73Q22.03 11.59 22.03 11.57ZM20.08 9.70L20.08 9.70Q20.08 10.49 20.74 10.49L20.74 10.49Q21.47 10.49 22.46 9.31L22.46 9.31Q22.99 8.68 23.38 8.11Q23.78 7.53 23.98 7.23L23.98 7.23Q22.27 7.25 21.14 8.01L21.14 8.01Q20.08 8.74 20.08 9.70ZM31.27 7.70L31.27 7.70Q30.75 7.42 30.35 7.42Q29.95 7.42 29.62 7.60Q29.30 7.79 29.05 8.08L29.05 8.08Q28.53 8.70 28.53 9.46L28.53 9.46Q28.53 10.04 28.94 10.36L28.94 10.36Q29.32 10.68 30.05 10.68Q30.78 10.68 31.49 10.24Q32.20 9.81 32.73 9.00L32.73 9.00Q33.04 8.98 33.04 9.25L33.04 9.25Q33.04 9.36 32.87 9.76Q32.70 10.16 32.27 10.75Q31.83 11.33 31.25 11.79L31.25 11.79Q30.01 12.76 28.55 12.76L28.55 12.76Q27.36 12.76 26.69 12.15L26.69 12.15Q26.00 11.54 26.00 10.38L26.00 10.38Q26.00 9.48 26.71 8.57L26.71 8.57Q27.38 7.72 28.39 7.17L28.39 7.17Q29.42 6.61 30.32 6.61L30.32 6.61Q30.80 6.61 31.07 6.77L31.07 6.77Q31.53 7.06 31.53 7.32L31.53 7.32Q31.53 7.60 31.27 7.70ZM33.91 12.39L33.91 12.39Q33.91 12.66 33.44 12.66Q32.98 12.66 32.67 12.57Q32.36 12.48 32.18 12.27L32.18 12.27Q31.82 11.89 31.82 10.96L31.82 10.96Q31.82 9.47 33.35 7.24L33.35 7.24Q34.22 5.98 35.00 5.17Q35.77 4.37 36.21 3.99L36.21 3.99Q37.16 3.17 37.55 3.17L37.55 3.17Q37.82 3.17 38.07 3.42L38.07 3.42Q36.76 4.70 35.70 6.47L35.70 6.47Q35.31 7.12 34.98 7.85L34.98 7.85Q36.15 6.95 37.39 6.67L37.39 6.67Q37.78 6.58 38.12 6.58L38.12 6.58Q38.77 6.58 38.77 7.18L38.77 7.18Q38.77 7.75 38.07 8.52L38.07 8.52Q37.46 9.17 36.72 9.58L36.72 9.58Q36.87 10.02 37.06 10.26Q37.26 10.49 37.58 10.49Q37.90 10.49 38.19 10.37Q38.48 10.24 38.76 10.04L38.76 10.04Q39.31 9.62 39.73 9.00L39.73 9.00Q40.04 8.98 40.04 9.25L40.04 9.25Q40.04 9.47 39.75 9.96Q39.47 10.45 39.20 10.80Q38.92 11.16 38.58 11.50Q38.24 11.85 37.85 12.11L37.85 12.11Q36.98 12.72 36.13 12.72L36.13 12.72Q34.78 12.72 34.71 10.29L34.71 10.29Q34.70 9.96 34.69 9.68L34.69 9.68Q35.53 9.37 36.16 8.97Q36.79 8.57 37.05 8.37L37.05 8.37Q37.64 7.89 37.64 7.55L37.64 7.55Q37.64 7.40 37.47 7.40Q37.31 7.40 37.09 7.48Q36.87 7.55 36.60 7.67Q36.33 7.80 36.02 7.98Q35.72 8.16 35.42 8.37L35.42 8.37Q34.76 8.86 34.41 9.34L34.41 9.34Q33.93 10.86 33.91 12.39ZM44.70 10.99L44.70 10.99Q44.70 10.62 44.92 10.29Q45.13 9.96 45.49 9.64Q45.84 9.31 46.30 8.98Q46.76 8.64 47.26 8.25Q47.75 7.86 48.24 7.41Q48.73 6.95 49.13 6.38L49.13 6.38Q50.05 5.11 50.23 3.56L50.23 3.56Q48.11 3.75 47.40 3.95Q46.69 4.14 46.33 4.40Q45.97 4.66 45.97 4.98Q45.97 5.30 46.02 5.51Q46.07 5.71 46.14 5.87Q46.20 6.04 46.25 6.17Q46.30 6.30 46.30 6.40L46.30 6.40Q46.30 6.58 45.83 6.80L45.83 6.80Q45.41 7 45.22 7Q45.02 7 44.84 6.86Q44.67 6.72 44.50 6.49L44.50 6.49Q44.08 5.94 44.08 5.42Q44.08 4.90 44.34 4.54Q44.60 4.18 45.04 3.91Q45.48 3.64 46.07 3.47Q46.67 3.29 47.34 3.17Q48.01 3.04 48.72 2.97Q49.42 2.89 50.10 2.83Q50.78 2.78 51.38 2.72Q51.99 2.67 52.45 2.59L52.45 2.59Q53.46 2.43 53.51 2.15Q53.57 1.88 53.66 1.64Q53.76 1.41 53.89 1.22L53.89 1.22Q54.17 0.81 54.51 0.81Q54.84 0.81 55.06 1.15L55.06 1.15Q55.26 1.47 55.26 1.83Q55.26 2.19 55.10 2.40Q54.93 2.61 54.64 2.77Q54.35 2.93 53.95 3.05Q53.55 3.17 53.07 3.25L53.07 3.25Q52.33 3.38 51.00 3.49L51.00 3.49Q51.01 3.79 51.01 4.07Q51.01 4.35 51.00 4.75Q50.99 5.16 50.94 5.77Q50.89 6.38 50.81 6.98Q50.73 7.58 50.63 8.11L50.63 8.11Q50.44 9.20 50.25 9.65Q50.07 10.10 49.81 10.52Q49.56 10.94 49.26 11.31Q48.95 11.69 48.61 12.01Q48.27 12.34 47.91 12.58L47.91 12.58Q47.16 13.09 46.55 13.09L46.55 13.09Q45.95 13.09 45.32 12.40L45.32 12.40Q44.70 11.72 44.70 10.99ZM55.36 8.56L55.36 8.56Q54.54 8.52 53.97 8.39L53.97 8.39Q53.27 9.61 52.59 10.57L52.59 10.57Q52.50 10.71 52.19 10.64L52.19 10.64Q51.63 10.52 51.54 10.36L51.54 10.36Q52.76 9.50 53.25 8.16L53.25 8.16Q52.53 7.83 52.53 7.23L52.53 7.23Q52.53 6.86 53.02 6.29L53.02 6.29Q53.48 5.73 53.70 5.73L53.70 5.73Q54.37 5.73 54.71 6.07L54.71 6.07Q54.85 6.20 54.85 6.42Q54.85 6.63 54.62 7.14L54.62 7.14Q55.67 7.65 57.27 7.74L57.27 7.74Q57.22 8.21 56.88 8.50L56.88 8.50Q56.78 8.59 56.68 8.59L56.68 8.59Q56.20 9.03 56 9.54L56 9.54Q55.94 9.71 55.94 9.86L55.94 9.86Q55.94 10.49 56.70 10.49L56.70 10.49Q57.21 10.49 57.83 10.04L57.83 10.04Q58.39 9.62 58.80 9.00L58.80 9.00Q59.11 8.98 59.11 9.25L59.11 9.25Q59.11 9.48 58.83 9.96Q58.54 10.44 58.28 10.79Q58.01 11.14 57.68 11.47Q57.35 11.81 56.98 12.07L56.98 12.07Q56.16 12.66 55.36 12.66L55.36 12.66Q54.02 12.66 53.56 11.83L53.56 11.83Q53.40 11.55 53.40 11.17Q53.40 10.80 53.56 10.44Q53.71 10.08 53.98 9.73L53.98 9.73Q54.52 9.02 55.36 8.56ZM60.53 9.97L60.53 9.97Q60.92 10.68 62.32 10.68L62.32 10.68Q63.20 10.68 63.97 10.26Q64.75 9.83 65.30 9.00L65.30 9.00Q65.61 8.98 65.61 9.25L65.61 9.25Q65.61 9.56 65.25 10.13Q64.88 10.71 64.56 11.07Q64.24 11.42 63.85 11.73Q63.46 12.03 63.01 12.25L63.01 12.25Q62.03 12.73 60.95 12.73L60.95 12.73Q58.78 12.73 58.13 11.53L58.13 11.53Q57.89 11.09 57.89 10.52Q57.89 9.96 58.09 9.49Q58.28 9.02 58.63 8.59Q58.97 8.16 59.44 7.80Q59.91 7.44 60.46 7.18L60.46 7.18Q61.64 6.61 62.86 6.61L62.86 6.61Q63.75 6.61 64.07 7.16L64.07 7.16Q64.19 7.36 64.19 7.67Q64.19 7.99 64.03 8.30Q63.87 8.61 63.59 8.86Q63.32 9.11 62.96 9.29Q62.60 9.48 62.19 9.62L62.19 9.62Q61.46 9.86 60.53 9.97ZM60.43 9.34L60.43 9.34Q61.30 9.24 61.93 8.85L61.93 8.85Q62.60 8.44 62.60 7.89Q62.60 7.34 62.09 7.34L62.09 7.34Q61.43 7.34 60.95 7.97L60.95 7.97Q60.48 8.57 60.43 9.34ZM67.03 9.97L67.03 9.97Q67.42 10.68 68.82 10.68L68.82 10.68Q69.70 10.68 70.48 10.26Q71.25 9.83 71.80 9.00L71.80 9.00Q72.11 8.98 72.11 9.25L72.11 9.25Q72.11 9.56 71.75 10.13Q71.38 10.71 71.06 11.07Q70.75 11.42 70.35 11.73Q69.96 12.03 69.51 12.25L69.51 12.25Q68.53 12.73 67.45 12.73L67.45 12.73Q65.28 12.73 64.63 11.53L64.63 11.53Q64.39 11.09 64.39 10.52Q64.39 9.96 64.59 9.49Q64.78 9.02 65.13 8.59Q65.47 8.16 65.94 7.80Q66.41 7.44 66.96 7.18L66.96 7.18Q68.14 6.61 69.36 6.61L69.36 6.61Q70.25 6.61 70.57 7.16L70.57 7.16Q70.69 7.36 70.69 7.67Q70.69 7.99 70.53 8.30Q70.37 8.61 70.10 8.86Q69.82 9.11 69.46 9.29Q69.10 9.48 68.69 9.62L68.69 9.62Q67.96 9.86 67.03 9.97ZM66.93 9.34L66.93 9.34Q67.81 9.24 68.43 8.85L68.43 8.85Q69.10 8.44 69.10 7.89Q69.10 7.34 68.59 7.34L68.59 7.34Q67.94 7.34 67.45 7.97L67.45 7.97Q66.99 8.57 66.93 9.34Z"></path></g><g data-v-423bf9ae="" id="67841b6b-c745-4563-9014-cf2df055458b" transform="matrix(1.1111111111111112,0,0,1.1111111111111112,-1.9300003051757812,0.44444444444444287)" stroke="none" fill="black"><path d="M39.756 19.322c-.258 9.204 6.01 13.098 8.114 14.084.582-1.917 1.104-6.62-.311-15.014C45.389 5.556 49.748 0 49.748 0c-4.329 3.254-9.763 10.945-9.992 19.322"></path><path d="M53.016 11.76c-1.279-2.254-2.488-4.385-2.769-6.55-.261-1.993-.266-3.719-.119-5.2 0 0-3.737 5.703-1.016 18.461 1.702 7.973 1.143 12.649.656 14.736 2-1.109 6.609-4.446 6.699-11.623.051-3.656-1.733-6.793-3.451-9.824M21.98 38.628c6.328 6.689 13.516 5.012 15.701 4.22-.941-1.764-3.9-5.463-10.837-10.396-10.614-7.545-11.456-14.55-11.456-14.55-.762 5.358.834 14.638 6.592 20.726"></path><path d="M26.013 23.908c-2.498-.693-4.859-1.346-6.591-2.677-1.595-1.227-2.818-2.44-3.76-3.592 0 0 1.389 6.671 12.337 13.771 6.842 4.437 9.75 8.135 10.882 9.958.63-2.201 1.535-7.818-3.477-12.955-2.554-2.623-6.03-3.58-9.391-4.505M23.343 63.507c9.204.257 13.098-6.016 14.084-8.116-1.915-.58-6.619-1.105-15.016.312-12.836 2.168-18.389-2.192-18.389-2.192 3.252 4.329 10.942 9.764 19.321 9.996"></path><path d="M15.786 50.245c-2.26 1.274-4.388 2.487-6.559 2.77-1.989.263-3.715.263-5.199.118 0 0 5.705 3.736 18.463 1.016 7.975-1.703 12.649-1.145 14.738-.655-1.114-1.999-4.448-6.611-11.622-6.699-3.659-.05-6.794 1.728-9.821 3.45M64.965 23.748c-6.689 6.326-5.013 13.517-4.221 15.697 1.768-.942 5.464-3.9 10.395-10.833 7.545-10.613 14.553-11.459 14.553-11.459-5.358-.761-14.637.837-20.727 6.595"></path><path d="M79.688 27.781c.692-2.502 1.344-4.861 2.677-6.595 1.223-1.595 2.438-2.817 3.589-3.758 0 0-6.671 1.387-13.771 12.337-4.435 6.84-8.136 9.75-9.958 10.883 2.201.627 7.82 1.53 12.957-3.48 2.623-2.555 3.58-6.027 4.506-9.387M76.07 44.44c-9.207-.259-13.102 6.012-14.086 8.115 1.914.582 6.621 1.105 15.016-.313 12.836-2.166 18.391 2.188 18.391 2.188-3.252-4.325-10.944-9.76-19.321-9.99"></path><path d="M83.629 57.703c2.256-1.279 4.389-2.49 6.557-2.77 1.991-.26 3.716-.268 5.197-.119 0 0-5.704-3.738-18.466-1.016-7.973 1.703-12.644 1.145-14.736.656 1.114 1.996 4.444 6.605 11.623 6.697 3.661.048 6.796-1.727 9.825-3.448M58.738 12.367c-1.891 4.583.518 7.748 1.389 8.645.662-.851 1.823-3.119 2.718-7.619 1.363-6.88 4.622-8.839 4.622-8.839-2.8.806-7.011 3.64-8.729 7.813"></path><path d="M66.861 11.1c-.211-1.382-.412-2.686-.141-3.832.249-1.054.576-1.923.933-2.639 0 0-2.973 2.154-4.042 9.103-.67 4.336-1.844 6.585-2.49 7.542 1.221-.177 4.18-.973 5.598-4.569.723-1.83.429-3.748.142-5.605M27.801 15.622c1.905 4.577 5.845 5.106 7.096 5.126-.137-1.071-.917-3.5-3.468-7.309-3.897-5.83-2.98-9.518-2.98-9.518-1.41 2.553-2.386 7.532-.648 11.701"></path><path d="M32.648 8.978c-1.125-.829-2.192-1.608-2.808-2.612a12.3 12.3 0 0 1-1.206-2.523s-.577 3.624 3.577 9.291c2.598 3.545 3.353 5.964 3.574 7.101.736-.99 2.268-3.645.729-7.189-.787-1.812-2.349-2.958-3.866-4.068M10.44 44.092c4.585 1.889 7.742-.525 8.644-1.394-.853-.658-3.121-1.819-7.618-2.715-6.88-1.368-8.841-4.622-8.841-4.622.808 2.8 3.64 7.008 7.815 8.731"></path><path d="M9.173 35.965c-1.384.213-2.687.414-3.833.143a12.3 12.3 0 0 1-2.639-.937s2.154 2.97 9.103 4.042c4.338.671 6.584 1.844 7.545 2.489-.181-1.216-.975-4.176-4.574-5.595-1.829-.721-3.747-.43-5.602-.142M85.596 33.041c-4.576 1.904-5.109 5.842-5.129 7.096 1.072-.138 3.498-.92 7.311-3.466 5.83-3.904 9.52-2.984 9.52-2.984-2.556-1.411-7.53-2.384-11.702-.646"></path><path d="M92.24 37.888c.827-1.126 1.605-2.19 2.609-2.809a12 12 0 0 1 2.525-1.203s-3.625-.58-9.295 3.571c-3.54 2.599-5.959 3.356-7.094 3.578.984.739 3.643 2.267 7.188.726 1.811-.786 2.957-2.349 4.067-3.863M47.499 68.297c1.506-1.159 3.108-2.53 4.459-4.012 3.798-4.164 5.503-10.854 5.503-10.854l-.748-.719s-2.752 6.33-7.165 9.836a29 29 0 0 1-2.295 1.629c-.515-13.339 1.769-23.413 2.434-26.026l-1.887-.62s-5.425 13.624-5.375 32.386C42.465 84.834 48.562 100 48.562 100l8.15-.417s-7.546-14.501-9.041-29.34a98 98 0 0 1-.172-1.946"></path></g><g data-v-423bf9ae="" id="8bc87a4f-6855-4961-8d2e-bd4fca48e3fe" fill="black" transform="matrix(0.6363216235237407,0,0,0.6363216235237407,125.11758871697788,58.1546653307435)"><path d="M0.25 5.01C0.25 5.17 0.43 5.17 0.56 5.17C0.71 5.17 0.76 5.15 0.77 4.97L0.88 3.89C0.90 3.81 1.44 3.75 2.20 3.75L4.19 3.75C4.24 3.75 4.27 4.35 4.27 4.97C4.27 6.43 4.21 12.18 4.09 12.18L3.22 12.18C3.00 12.18 2.95 12.19 2.95 12.39C2.95 12.63 2.97 12.68 3.16 12.68C3.49 12.68 4.47 12.64 4.89 12.64C5.31 12.64 6.24 12.68 6.57 12.68C6.73 12.68 6.76 12.61 6.76 12.40C6.76 12.24 6.73 12.18 6.57 12.18L5.57 12.18C5.54 12.18 5.54 11.76 5.54 11.31C5.54 9.56 5.63 5.96 5.63 5.92C5.64 5.18 5.64 3.75 5.74 3.75L7.35 3.75C8.06 3.75 8.89 3.78 8.89 3.85C8.89 3.99 8.85 4.90 8.85 4.97C8.85 5.12 8.92 5.17 9.10 5.17C9.30 5.17 9.37 5.17 9.37 5.03C9.37 3.93 9.42 3.40 9.42 3.14C9.42 2.94 9.34 2.94 9.14 2.94C8.99 2.94 8.93 2.98 8.92 3.16C8.92 3.23 8.27 3.28 7.43 3.28L2.44 3.28C1.78 3.28 0.97 3.28 0.97 3.21L0.97 3.07C0.97 2.94 0.84 2.94 0.74 2.94C0.52 2.94 0.49 3.00 0.48 3.19C0.42 3.89 0.25 4.97 0.25 5.01ZM17.18 3.51C17.18 3.72 17.25 3.79 17.44 3.79L18.26 3.77C18.35 3.77 18.40 6.61 18.40 8.55L18.40 10.42C18.40 11.30 18.38 12.18 18.34 12.18L17.74 12.18C17.51 12.18 17.44 12.19 17.44 12.39C17.44 12.63 17.49 12.68 17.68 12.68C17.81 12.68 18.63 12.64 19.05 12.64C19.47 12.64 20.24 12.68 20.57 12.68C20.73 12.68 20.76 12.61 20.76 12.40C20.76 12.24 20.73 12.18 20.57 12.18L19.75 12.18C19.68 12.18 19.60 9.18 19.60 8.37C19.60 8.30 19.60 8.26 19.71 8.26C20.10 8.26 20.71 8.27 21 8.27C23.24 8.32 23.38 10.00 23.38 11.68L23.38 12.49C23.38 12.61 23.44 12.64 23.53 12.64C23.53 12.64 24.98 12.68 25.45 12.68C25.62 12.68 25.68 12.64 25.68 12.53C25.68 12.24 25.62 12.18 25.47 12.18L24.82 12.18C24.72 12.18 24.70 12.14 24.67 11.31C24.58 8.99 23.21 8.34 22.30 8.05C22.16 8.01 22.19 8.01 22.30 7.95C22.89 7.69 24.21 6.94 24.21 5.63C24.21 3.63 22.51 3.21 21.11 3.21C20.79 3.21 19.50 3.29 19.08 3.29C18.66 3.29 17.68 3.26 17.46 3.26C17.28 3.26 17.18 3.28 17.18 3.51ZM19.60 7.80L19.60 4.40C19.60 4.05 19.63 3.68 19.67 3.68C19.88 3.65 20.16 3.65 20.38 3.65C21.69 3.65 22.93 4.47 22.93 5.82C22.93 6.99 22.39 7.57 21.73 7.88C21.69 7.90 21.64 7.90 21.57 7.90C21.10 7.88 20.38 7.88 19.78 7.87C19.61 7.87 19.60 7.85 19.60 7.80ZM33.01 12.39C33.01 12.63 33.01 12.68 33.21 12.68C33.38 12.68 33.70 12.64 34.27 12.64C34.89 12.64 35.43 12.68 35.59 12.68C35.76 12.68 35.76 12.61 35.76 12.40C35.76 12.24 35.76 12.18 35.59 12.18L34.51 12.18C34.51 12.18 34.50 12.18 34.50 12.17C34.51 11.87 35.28 9.90 35.63 9.02C35.70 8.83 35.71 8.79 35.92 8.79L38.75 8.79C38.89 8.79 38.89 8.81 38.96 9.03C39.23 9.77 39.94 11.89 39.94 12.17C39.94 12.18 39.93 12.18 39.93 12.18L39.16 12.18C38.93 12.18 38.92 12.19 38.92 12.39C38.92 12.63 38.93 12.68 39.10 12.68C39.42 12.68 40.29 12.64 40.71 12.64C41.13 12.64 41.80 12.68 42.01 12.68C42.15 12.68 42.17 12.61 42.17 12.40C42.17 12.24 42.15 12.18 42.01 12.18L41.52 12.18C41.43 12.18 40.40 9.34 39.84 7.78L38.16 3.07C38.15 3.00 38.08 2.94 38.00 2.94C37.87 2.94 37.77 3.16 37.69 3.35C37.53 3.71 37.30 3.84 37.18 4.13L35.70 7.57C35.52 8.01 33.81 12.18 33.68 12.18L33.26 12.18C33.04 12.18 33.01 12.19 33.01 12.39ZM35.91 8.33C35.91 8.30 35.94 8.23 35.98 8.13L37.35 4.77C37.39 4.66 37.42 4.61 37.45 4.61C37.46 4.61 37.48 4.63 37.52 4.77L38.68 8.18C38.71 8.25 38.72 8.29 38.72 8.32C38.72 8.36 38.70 8.37 38.60 8.37L36.09 8.37C35.91 8.37 35.91 8.34 35.91 8.33ZM49.71 7.91C49.71 11.31 52.08 12.87 54.67 12.87C56.45 12.87 58.23 11.90 58.27 11.59C58.44 10.29 58.49 9.70 58.49 9.66C58.49 9.56 58.45 9.52 58.28 9.51C58.23 9.51 58.17 9.49 58.13 9.49C58.02 9.49 57.96 9.53 57.93 9.70L57.75 11.33C57.74 11.45 56.63 12.24 55.06 12.24C52.93 12.24 51.23 10.29 51.23 7.94C51.23 5.42 52.65 3.54 54.66 3.54C56.50 3.54 57.85 5.01 57.85 5.17C57.85 5.29 57.79 6.40 57.79 6.45C57.79 6.59 57.83 6.64 58.10 6.64C58.30 6.64 58.37 6.62 58.37 6.44C58.37 5.73 58.42 3.92 58.42 3.67C58.42 3.47 58.31 3.44 58.10 3.44C57.88 3.44 57.85 3.50 57.85 3.67L57.85 4.05C57.85 4.16 57.81 4.16 57.68 4.06C57.40 3.86 56.42 3.04 54.75 3.04C51.91 3.04 49.71 4.96 49.71 7.91ZM66.74 12.39C66.74 12.63 66.78 12.68 66.98 12.68C67.30 12.68 68.05 12.64 68.77 12.64C69.43 12.64 70.22 12.68 70.45 12.68C70.62 12.68 70.64 12.61 70.64 12.40C70.64 12.24 70.62 12.18 70.45 12.18L69.48 12.18C69.38 12.18 69.36 9.55 69.36 7.76L69.36 5.87C69.36 5.14 69.38 3.70 69.48 3.70L70.39 3.70C70.62 3.70 70.64 3.68 70.64 3.49C70.64 3.25 70.62 3.19 70.45 3.19C70.13 3.19 69.45 3.23 68.80 3.23C67.98 3.23 67.27 3.19 67.05 3.19C66.86 3.19 66.79 3.21 66.79 3.44C66.79 3.68 66.88 3.70 67.05 3.70L67.97 3.70C68.01 3.70 68.08 4.79 68.08 5.71L68.08 7.08C68.08 8.92 68.07 12.18 67.96 12.18L67.03 12.18C66.81 12.18 66.74 12.19 66.74 12.39ZM78.54 12.39C78.54 12.63 78.55 12.68 78.75 12.68C78.93 12.68 79.31 12.64 79.93 12.64C80.56 12.64 81.12 12.68 81.44 12.68C81.61 12.68 81.61 12.61 81.61 12.40C81.61 12.24 81.61 12.18 81.44 12.18L80.23 12.18C80.19 12.18 80.18 11.54 80.18 10.79C80.18 9.46 80.19 7.48 80.19 5.99C80.19 5.25 80.19 4.84 80.21 4.28C80.21 4.02 80.28 4.14 80.40 4.28L87.29 12.66C87.37 12.75 87.46 12.89 87.57 12.89C87.68 12.89 87.75 12.77 87.75 12.54C87.75 12.39 87.92 6.65 87.93 4.48C87.93 4.06 87.96 3.70 87.99 3.70L88.62 3.70C88.84 3.70 88.90 3.68 88.90 3.49C88.90 3.25 88.90 3.19 88.70 3.19C88.51 3.19 88.07 3.23 87.51 3.23C86.90 3.23 86.10 3.19 86.00 3.19C85.83 3.19 85.83 3.26 85.83 3.47C85.83 3.64 85.83 3.70 86.00 3.70L87.30 3.70C87.32 3.70 87.32 4.33 87.32 4.44C87.32 5.85 87.35 8.33 87.35 9.70L87.35 10.29C87.35 10.57 87.33 10.65 87.11 10.37L81.42 3.39C81.31 3.25 81.28 3.19 81.12 3.19C81.03 3.19 80.65 3.23 80.35 3.23C80.05 3.23 78.97 3.19 78.78 3.19C78.61 3.19 78.58 3.26 78.58 3.47C78.58 3.64 78.61 3.70 78.78 3.70L79.69 3.70C79.69 4.17 79.65 8.53 79.58 10.79C79.55 11.69 79.56 12.18 79.45 12.18L78.81 12.18C78.58 12.18 78.54 12.19 78.54 12.39ZM97.01 7.91C97.01 11.40 99.37 12.89 101.96 12.89C103.85 12.89 105.85 11.89 105.85 11.58C105.85 11.12 105.87 10.68 105.87 10.33C105.87 9.81 105.88 9.56 106.01 9.56L106.44 9.56C106.58 9.56 106.60 9.39 106.60 9.30C106.60 9.18 106.58 9.06 106.44 9.06C106.22 9.06 105.85 9.10 105.18 9.10C104.73 9.10 103.99 9.07 103.31 9.06C103.17 9.06 103.17 9.24 103.17 9.35C103.17 9.45 103.19 9.56 103.32 9.56L104.54 9.56C104.58 9.56 104.64 9.87 104.64 10.33C104.64 10.82 104.62 11.41 104.59 11.65C104.58 11.76 103.94 12.39 102.35 12.39C100.11 12.39 98.52 10.29 98.52 7.94C98.52 5.42 100.07 3.54 102.07 3.54C103.96 3.54 105.14 4.87 105.14 5.03C105.14 5.15 105.08 6.12 105.08 6.17C105.08 6.31 105.13 6.36 105.39 6.36C105.59 6.36 105.66 6.33 105.66 6.15C105.66 5.43 105.70 3.75 105.70 3.56C105.70 3.36 105.60 3.33 105.39 3.33C105.17 3.33 105.14 3.39 105.14 3.56L105.14 3.91C105.14 3.99 105.10 4.02 104.97 3.92C104.69 3.72 103.70 3.08 102.13 3.08C99.29 3.08 97.01 4.79 97.01 7.91ZM124.01 3.44C124.01 3.68 124.10 3.70 124.26 3.70L124.67 3.70C124.80 3.70 127.05 7.74 127.46 8.50C127.51 8.60 127.55 8.65 127.55 8.81C127.55 10.50 127.54 12.18 127.41 12.18L126.70 12.18C126.48 12.18 126.43 12.19 126.43 12.39C126.43 12.63 126.45 12.68 126.64 12.68C126.84 12.68 127.65 12.64 128.24 12.64C129.07 12.64 129.60 12.68 129.92 12.68C130.09 12.68 130.12 12.61 130.12 12.40C130.12 12.24 130.09 12.18 129.92 12.18L128.95 12.18C128.86 12.18 128.83 9.72 128.83 8.22C128.83 8.18 128.83 8.15 128.87 8.09C129.42 7.22 131.36 3.70 131.43 3.70L131.91 3.70C132.08 3.70 132.17 3.68 132.17 3.44C132.17 3.22 132.09 3.19 131.91 3.19C131.68 3.19 131.45 3.23 130.84 3.23C130.26 3.23 129.92 3.19 129.75 3.19C129.56 3.19 129.51 3.25 129.51 3.49C129.51 3.68 129.58 3.70 129.81 3.70L130.54 3.70C130.55 3.70 130.56 3.71 130.56 3.74C130.56 4.05 129.00 6.99 128.62 7.71C128.51 7.92 128.51 7.88 128.39 7.67C127.99 6.89 126.70 4.56 126.41 3.85C126.35 3.71 126.34 3.70 126.52 3.70L127.34 3.70C127.57 3.70 127.60 3.68 127.60 3.49C127.60 3.25 127.55 3.19 127.40 3.19C127.16 3.19 126.55 3.23 125.75 3.23C124.94 3.23 124.45 3.19 124.26 3.19C124.08 3.19 124.01 3.21 124.01 3.44ZM139.30 8.15C139.30 11.17 141.64 12.80 143.89 12.80C146.68 12.80 148.65 10.89 148.65 8.06C148.65 5.33 146.90 3.11 144.10 3.11C141.50 3.11 139.30 5.10 139.30 8.15ZM140.70 7.77C140.70 5.64 141.99 3.58 143.96 3.58C146.20 3.58 147.28 5.81 147.28 7.94C147.28 10.08 146.17 12.32 143.91 12.32C141.92 12.32 140.70 10.28 140.70 7.77ZM156.76 3.51C156.76 3.75 156.84 3.77 157.01 3.77L157.54 3.77C157.60 3.77 157.60 4.12 157.60 4.55C157.60 5.66 157.58 8.96 157.58 9.42C157.58 11.13 157.84 12.80 160.69 12.80C161.77 12.80 162.93 12.38 163.59 12.00C163.84 11.86 164.14 11.72 164.22 11.72C164.49 11.72 164.75 12.74 165.09 12.74C165.41 12.74 165.42 12.35 165.42 12.25C165.42 11.96 165.48 10.08 165.52 8.16C165.58 6.12 165.56 3.77 165.68 3.77L166.00 3.77C166.22 3.77 166.29 3.75 166.29 3.56C166.29 3.32 166.25 3.26 166.05 3.26C165.91 3.26 165.38 3.30 164.96 3.30C164.54 3.30 163.74 3.26 163.52 3.26C163.34 3.26 163.24 3.28 163.24 3.51C163.24 3.75 163.35 3.77 163.52 3.77L164.22 3.77C164.29 3.77 164.30 4.30 164.30 4.87L164.30 9.14C164.30 11.19 164.30 11.12 163.97 11.34C163.58 11.61 162.76 12.08 161.59 12.08C159.61 12.08 158.82 11.17 158.82 9.41C158.82 8.82 158.89 3.77 159.00 3.77L159.91 3.77C160.13 3.77 160.17 3.75 160.17 3.56C160.17 3.32 160.16 3.26 159.96 3.26C159.64 3.26 158.76 3.30 158.34 3.30C157.92 3.30 157.23 3.26 157.01 3.26C156.83 3.26 156.76 3.28 156.76 3.51ZM174.33 3.51C174.33 3.72 174.40 3.79 174.59 3.79L175.41 3.77C175.50 3.77 175.55 6.61 175.55 8.55L175.55 10.42C175.55 11.30 175.53 12.18 175.49 12.18L174.89 12.18C174.66 12.18 174.59 12.19 174.59 12.39C174.59 12.63 174.64 12.68 174.83 12.68C174.96 12.68 175.78 12.64 176.20 12.64C176.62 12.64 177.39 12.68 177.72 12.68C177.88 12.68 177.91 12.61 177.91 12.40C177.91 12.24 177.88 12.18 177.72 12.18L176.90 12.18C176.83 12.18 176.75 9.18 176.75 8.37C176.75 8.30 176.75 8.26 176.86 8.26C177.25 8.26 177.86 8.27 178.15 8.27C180.39 8.32 180.53 10.00 180.53 11.68L180.53 12.49C180.53 12.61 180.59 12.64 180.68 12.64C180.68 12.64 182.13 12.68 182.60 12.68C182.77 12.68 182.83 12.64 182.83 12.53C182.83 12.24 182.77 12.18 182.62 12.18L181.97 12.18C181.87 12.18 181.85 12.14 181.82 11.31C181.73 8.99 180.36 8.34 179.45 8.05C179.31 8.01 179.34 8.01 179.45 7.95C180.04 7.69 181.36 6.94 181.36 5.63C181.36 3.63 179.66 3.21 178.26 3.21C177.94 3.21 176.65 3.29 176.23 3.29C175.81 3.29 174.83 3.26 174.61 3.26C174.43 3.26 174.33 3.28 174.33 3.51ZM176.75 7.80L176.75 4.40C176.75 4.05 176.78 3.68 176.82 3.68C177.03 3.65 177.31 3.65 177.53 3.65C178.84 3.65 180.08 4.47 180.08 5.82C180.08 6.99 179.54 7.57 178.88 7.88C178.84 7.90 178.79 7.90 178.72 7.90C178.25 7.88 177.53 7.88 176.93 7.87C176.76 7.87 176.75 7.85 176.75 7.80ZM200.10 3.51C200.10 3.72 200.17 3.79 200.37 3.79L201.18 3.77C201.28 3.77 201.32 6.61 201.32 8.55L201.32 10.42C201.32 11.30 201.31 12.18 201.26 12.18L200.66 12.18C200.44 12.18 200.37 12.19 200.37 12.39C200.37 12.63 200.41 12.68 200.61 12.68C200.73 12.68 201.56 12.64 201.98 12.64C202.40 12.64 203.17 12.68 203.49 12.68C203.66 12.68 203.69 12.61 203.69 12.40C203.69 12.24 203.66 12.18 203.49 12.18L202.68 12.18C202.61 12.18 202.52 9.18 202.52 8.37C202.52 8.30 202.52 8.26 202.64 8.26C203.03 8.26 203.63 8.27 203.92 8.27C206.16 8.32 206.30 10.00 206.30 11.68L206.30 12.49C206.30 12.61 206.36 12.64 206.46 12.64C206.46 12.64 207.90 12.68 208.38 12.68C208.54 12.68 208.60 12.64 208.60 12.53C208.60 12.24 208.54 12.18 208.39 12.18L207.75 12.18C207.65 12.18 207.62 12.14 207.59 11.31C207.51 8.99 206.14 8.34 205.23 8.05C205.09 8.01 205.11 8.01 205.23 7.95C205.81 7.69 207.13 6.94 207.13 5.63C207.13 3.63 205.44 3.21 204.04 3.21C203.71 3.21 202.43 3.29 202.01 3.29C201.59 3.29 200.61 3.26 200.38 3.26C200.20 3.26 200.10 3.28 200.10 3.51ZM202.52 7.80L202.52 4.40C202.52 4.05 202.55 3.68 202.59 3.68C202.80 3.65 203.08 3.65 203.31 3.65C204.61 3.65 205.86 4.47 205.86 5.82C205.86 6.99 205.31 7.57 204.65 7.88C204.61 7.90 204.57 7.90 204.50 7.90C204.02 7.88 203.31 7.88 202.71 7.87C202.54 7.87 202.52 7.85 202.52 7.80ZM216.01 8.15C216.01 11.17 218.34 12.80 220.60 12.80C223.38 12.80 225.36 10.89 225.36 8.06C225.36 5.33 223.61 3.11 220.81 3.11C218.20 3.11 216.01 5.10 216.01 8.15ZM217.41 7.77C217.41 5.64 218.69 3.58 220.67 3.58C222.91 3.58 223.99 5.81 223.99 7.94C223.99 10.08 222.88 12.32 220.61 12.32C218.62 12.32 217.41 10.28 217.41 7.77ZM233.53 8.15C233.53 11.17 235.87 12.80 238.13 12.80C240.91 12.80 242.89 10.89 242.89 8.06C242.89 5.33 241.14 3.11 238.34 3.11C235.73 3.11 233.53 5.10 233.53 8.15ZM234.93 7.77C234.93 5.64 236.22 3.58 238.20 3.58C240.44 3.58 241.51 5.81 241.51 7.94C241.51 10.08 240.41 12.32 238.14 12.32C236.15 12.32 234.93 10.28 234.93 7.77ZM250.17 5.01C250.17 5.17 250.35 5.17 250.47 5.17C250.63 5.17 250.67 5.15 250.68 4.97L250.80 3.89C250.81 3.81 251.36 3.75 252.11 3.75L254.10 3.75C254.16 3.75 254.18 4.35 254.18 4.97C254.18 6.43 254.13 12.18 254.00 12.18L253.13 12.18C252.91 12.18 252.87 12.19 252.87 12.39C252.87 12.63 252.88 12.68 253.08 12.68C253.40 12.68 254.38 12.64 254.80 12.64C255.22 12.64 256.16 12.68 256.48 12.68C256.65 12.68 256.68 12.61 256.68 12.40C256.68 12.24 256.65 12.18 256.48 12.18L255.49 12.18C255.46 12.18 255.46 11.76 255.46 11.31C255.46 9.56 255.54 5.96 255.54 5.92C255.56 5.18 255.56 3.75 255.65 3.75L257.26 3.75C257.98 3.75 258.80 3.78 258.80 3.85C258.80 3.99 258.76 4.90 258.76 4.97C258.76 5.12 258.83 5.17 259.01 5.17C259.21 5.17 259.28 5.17 259.28 5.03C259.28 3.93 259.34 3.40 259.34 3.14C259.34 2.94 259.25 2.94 259.06 2.94C258.90 2.94 258.85 2.98 258.83 3.16C258.83 3.23 258.19 3.28 257.35 3.28L252.35 3.28C251.69 3.28 250.88 3.28 250.88 3.21L250.88 3.07C250.88 2.94 250.75 2.94 250.66 2.94C250.43 2.94 250.40 3.00 250.39 3.19C250.33 3.89 250.17 4.97 250.17 5.01ZM267.30 5.77C267.30 9.07 272.29 8.20 272.29 10.65C272.29 11.59 271.45 12.31 270.47 12.31C269.64 12.31 268.04 11.83 268.02 11.47L267.93 10.15C267.92 9.97 267.85 9.91 267.67 9.91L267.60 9.91C267.39 9.91 267.39 10.00 267.39 10.12C267.39 10.32 267.50 11.66 267.53 12.17C267.54 12.38 268.80 12.85 270.34 12.85C271.91 12.85 273.52 11.87 273.52 10.11C273.52 6.79 268.55 7.87 268.55 5.32C268.55 4.31 269.33 3.56 270.37 3.56C271.39 3.56 272.48 4.58 272.48 4.89C272.48 5.01 272.44 5.73 272.44 5.78C272.44 5.92 272.48 5.99 272.75 5.99C272.99 5.99 273.00 5.94 273.00 5.75C273.00 5.04 273.08 3.68 273.08 3.53C273.08 3.30 273.04 3.29 272.78 3.29C272.55 3.29 272.54 3.32 272.52 3.53C272.52 3.61 272.51 3.78 272.47 3.78C272.41 3.78 272.33 3.74 272.26 3.68C271.46 3.14 270.84 3.08 270.34 3.08C268.81 3.08 267.30 4.17 267.30 5.77ZM281.48 14.55C281.48 14.64 281.55 14.83 281.68 14.83C281.85 14.83 283.29 13.45 283.29 12.25C283.29 11.86 282.51 11.33 282.25 11.33C282.16 11.33 281.54 11.66 281.54 11.93C281.54 12.21 282.46 12.45 282.46 13.08C282.46 13.78 281.48 14.42 281.48 14.55ZM301.34 5.77C301.34 9.07 306.32 8.20 306.32 10.65C306.32 11.59 305.48 12.31 304.50 12.31C303.67 12.31 302.08 11.83 302.05 11.47L301.97 10.15C301.95 9.97 301.88 9.91 301.70 9.91L301.63 9.91C301.42 9.91 301.42 10.00 301.42 10.12C301.42 10.32 301.53 11.66 301.56 12.17C301.57 12.38 302.83 12.85 304.37 12.85C305.94 12.85 307.55 11.87 307.55 10.11C307.55 6.79 302.58 7.87 302.58 5.32C302.58 4.31 303.37 3.56 304.40 3.56C305.42 3.56 306.52 4.58 306.52 4.89C306.52 5.01 306.47 5.73 306.47 5.78C306.47 5.92 306.52 5.99 306.78 5.99C307.02 5.99 307.03 5.94 307.03 5.75C307.03 5.04 307.12 3.68 307.12 3.53C307.12 3.30 307.08 3.29 306.81 3.29C306.59 3.29 306.57 3.32 306.56 3.53C306.56 3.61 306.54 3.78 306.50 3.78C306.45 3.78 306.36 3.74 306.29 3.68C305.49 3.14 304.88 3.08 304.37 3.08C302.85 3.08 301.34 4.17 301.34 5.77ZM315.38 12.39C315.38 12.63 315.42 12.68 315.62 12.68C315.94 12.68 316.69 12.64 317.41 12.64C318.07 12.64 318.86 12.68 319.09 12.68C319.26 12.68 319.28 12.61 319.28 12.40C319.28 12.24 319.26 12.18 319.09 12.18L318.12 12.18C318.02 12.18 318.00 9.55 318.00 7.76L318.00 5.87C318.00 5.14 318.02 3.70 318.12 3.70L319.03 3.70C319.26 3.70 319.28 3.68 319.28 3.49C319.28 3.25 319.26 3.19 319.09 3.19C318.77 3.19 318.09 3.23 317.44 3.23C316.62 3.23 315.91 3.19 315.69 3.19C315.50 3.19 315.43 3.21 315.43 3.44C315.43 3.68 315.52 3.70 315.69 3.70L316.61 3.70C316.65 3.70 316.72 4.79 316.72 5.71L316.72 7.08C316.72 8.92 316.71 12.18 316.60 12.18L315.67 12.18C315.45 12.18 315.38 12.19 315.38 12.39ZM327.11 12.39C327.11 12.63 327.14 12.68 327.33 12.68C327.57 12.68 328.08 12.64 328.50 12.64C328.92 12.64 329.41 12.68 329.73 12.68C329.90 12.68 329.92 12.61 329.92 12.40C329.92 12.24 329.90 12.18 329.73 12.18L328.76 12.18C328.71 12.18 328.69 11.54 328.69 10.79C328.69 8.96 328.73 6.13 328.80 4.28C328.83 3.88 328.86 3.91 329.00 4.27L332.26 12.32C332.36 12.54 332.43 12.74 332.54 12.74C332.64 12.74 332.71 12.63 332.79 12.45C333.13 11.79 333.31 11.75 333.58 11.09L336.17 4.47C336.29 4.16 336.34 4.02 336.35 4.47C336.38 5.66 336.42 8.47 336.42 9.74C336.42 10.99 336.38 12.18 336.32 12.18L335.69 12.18C335.47 12.18 335.40 12.19 335.40 12.39C335.40 12.63 335.43 12.68 335.62 12.68C335.82 12.68 336.52 12.64 337.12 12.64C337.54 12.64 338.30 12.68 338.62 12.68C338.79 12.68 338.81 12.61 338.81 12.40C338.81 12.22 338.76 12.18 338.59 12.18L337.86 12.18C337.75 12.18 337.65 8.44 337.65 6.03L337.65 4.77C337.65 4.17 337.68 3.77 337.72 3.70L338.38 3.70C338.60 3.70 338.65 3.68 338.65 3.49C338.65 3.25 338.63 3.19 338.44 3.19C338.11 3.19 337.43 3.23 337.01 3.23L336.34 3.23C336.11 3.23 336.08 3.29 335.97 3.58L333.23 10.72C333.14 10.95 333.12 11.02 333.00 10.74L330.06 3.40C329.99 3.22 329.94 3.19 329.80 3.19C329.71 3.19 329.22 3.23 328.92 3.23C328.41 3.23 327.56 3.19 327.36 3.19C327.22 3.19 327.22 3.26 327.22 3.47C327.22 3.64 327.22 3.70 327.36 3.70L328.06 3.70C328.33 3.70 328.33 3.72 328.33 3.84C328.33 4.82 328.12 9.94 328.08 10.79C328.03 11.55 328.03 12.18 327.98 12.18L327.40 12.18C327.18 12.18 327.11 12.19 327.11 12.39ZM346.71 3.51C346.71 3.75 346.75 3.79 346.96 3.79L347.89 3.77C347.94 3.77 347.94 4.47 347.94 5.24L347.94 5.96C347.94 7.70 347.93 12.18 347.82 12.18L347.14 12.18C346.92 12.18 346.85 12.19 346.85 12.39C346.85 12.63 346.86 12.68 347.06 12.68C347.19 12.68 348.17 12.64 348.59 12.64C349.01 12.64 349.87 12.68 350.20 12.68C350.36 12.68 350.39 12.61 350.39 12.40C350.39 12.24 350.36 12.18 350.20 12.18L349.20 12.18C349.16 12.18 349.15 10.60 349.15 9.58L349.15 8.65C349.15 8.57 349.15 8.54 349.24 8.54C349.64 8.54 349.96 8.58 350.46 8.58C352.45 8.58 353.85 7.83 353.85 6.01C353.85 4.09 352.37 3.22 350.45 3.22C350.13 3.22 349.03 3.29 348.61 3.29C348.38 3.29 347.19 3.26 346.96 3.26C346.78 3.26 346.71 3.28 346.71 3.51ZM349.16 8.05L349.16 4.40C349.16 4.05 349.17 3.70 349.22 3.68C349.34 3.67 349.51 3.67 349.65 3.67C351.30 3.67 352.56 4.47 352.56 5.80C352.56 7.57 351.23 8.19 349.65 8.19C349.40 8.19 349.16 8.16 349.16 8.05ZM361.61 12.39C361.61 12.63 361.63 12.68 361.83 12.68C362.15 12.68 363.12 12.64 363.54 12.64C363.96 12.64 368.31 12.68 368.63 12.68C368.90 12.68 368.97 12.66 368.98 12.49C369.04 12.08 369.28 10.72 369.28 10.60C369.28 10.47 369.12 10.44 368.96 10.43C368.86 10.42 368.77 10.46 368.76 10.56L368.59 11.76C368.55 12.05 368.54 12.03 368.31 12.04C368.16 12.05 365.65 12.12 364.22 12.12C364.18 12.12 364.14 11.38 364.14 10.54L364.14 6.66C364.14 5.40 364.15 3.70 364.25 3.70L365.23 3.70C365.47 3.70 365.50 3.63 365.50 3.44C365.50 3.23 365.48 3.19 365.25 3.19C364.92 3.19 363.99 3.23 363.57 3.23C363.15 3.23 362.21 3.19 361.98 3.19C361.76 3.19 361.70 3.22 361.70 3.44C361.70 3.65 361.75 3.70 361.94 3.70L362.77 3.70C362.81 3.70 362.84 4.23 362.84 4.90L362.84 8.13C362.84 10.07 362.81 12.18 362.73 12.18L361.89 12.18C361.66 12.18 361.61 12.21 361.61 12.39ZM376.75 12.39C376.75 12.63 376.80 12.68 376.99 12.68C377.31 12.68 378.07 12.64 378.78 12.64C379.44 12.64 380.24 12.68 380.46 12.68C380.63 12.68 380.66 12.61 380.66 12.40C380.66 12.24 380.63 12.18 380.46 12.18L379.50 12.18C379.40 12.18 379.37 9.55 379.37 7.76L379.37 5.87C379.37 5.14 379.40 3.70 379.50 3.70L380.41 3.70C380.63 3.70 380.66 3.68 380.66 3.49C380.66 3.25 380.63 3.19 380.46 3.19C380.14 3.19 379.47 3.23 378.81 3.23C378.00 3.23 377.29 3.19 377.06 3.19C376.88 3.19 376.81 3.21 376.81 3.44C376.81 3.68 376.89 3.70 377.06 3.70L377.99 3.70C378.03 3.70 378.10 4.79 378.10 5.71L378.10 7.08C378.10 8.92 378.08 12.18 377.97 12.18L377.05 12.18C376.82 12.18 376.75 12.19 376.75 12.39ZM388.56 3.49C388.56 3.72 388.67 3.74 388.84 3.74L389.45 3.74C389.51 3.74 389.58 4.79 389.58 5.71C389.58 5.80 389.63 8.27 389.63 9.83L389.63 11.17C389.63 11.84 389.62 12.18 389.56 12.18L388.98 12.18C388.75 12.18 388.68 12.19 388.68 12.39C388.68 12.63 388.70 12.68 388.89 12.68C389.10 12.68 389.94 12.64 390.36 12.64C390.78 12.64 391.72 12.68 392.04 12.68C392.21 12.68 392.24 12.61 392.24 12.40C392.24 12.24 392.21 12.18 392.04 12.18L390.91 12.18C390.85 12.18 390.87 10.16 390.82 8.33C390.82 8.08 390.81 8.09 391.01 8.09L393.43 8.09C394.13 8.09 394.16 8.19 394.16 8.30L394.16 9.16C394.16 9.28 394.34 9.28 394.45 9.28C394.55 9.28 394.67 9.28 394.67 9.17C394.67 8.99 394.65 8.33 394.65 7.83C394.65 7.32 394.67 6.82 394.67 6.69C394.67 6.58 394.56 6.58 394.44 6.58C394.27 6.58 394.16 6.58 394.16 6.71L394.16 7.45C394.16 7.62 393.71 7.63 393.43 7.63L391.01 7.63C390.80 7.63 390.82 7.66 390.82 7.45C390.81 7.13 390.80 6.15 390.80 5.26C390.80 4.52 390.81 3.71 390.88 3.71C392.28 3.71 394.46 3.75 394.76 3.79C394.76 3.96 394.72 4.82 394.72 4.89C394.72 5.04 394.79 5.10 394.97 5.10C395.16 5.10 395.23 5.08 395.23 4.94C395.23 3.85 395.29 3.36 395.29 3.09C395.29 2.93 395.21 2.90 395.01 2.90C394.88 2.90 394.81 2.90 394.79 3.11C394.77 3.25 394.84 3.25 393.89 3.25C393.29 3.25 391.01 3.29 390.26 3.29C389.77 3.29 388.84 3.25 388.74 3.25C388.61 3.25 388.56 3.30 388.56 3.49ZM403.12 12.39C403.12 12.63 403.16 12.68 403.35 12.68C403.68 12.68 404.43 12.64 405.15 12.64C405.80 12.64 406.60 12.68 406.83 12.68C406.99 12.68 407.02 12.61 407.02 12.40C407.02 12.24 406.99 12.18 406.83 12.18L405.86 12.18C405.76 12.18 405.73 9.55 405.73 7.76L405.73 5.87C405.73 5.14 405.76 3.70 405.86 3.70L406.77 3.70C406.99 3.70 407.02 3.68 407.02 3.49C407.02 3.25 406.99 3.19 406.83 3.19C406.50 3.19 405.83 3.23 405.17 3.23C404.36 3.23 403.65 3.19 403.42 3.19C403.24 3.19 403.17 3.21 403.17 3.44C403.17 3.68 403.26 3.70 403.42 3.70L404.35 3.70C404.39 3.70 404.46 4.79 404.46 5.71L404.46 7.08C404.46 8.92 404.45 12.18 404.33 12.18L403.41 12.18C403.19 12.18 403.12 12.19 403.12 12.39ZM414.92 12.39C414.92 12.63 414.95 12.68 415.14 12.68C415.46 12.68 416.43 12.64 416.85 12.64C417.27 12.64 421.78 12.68 422.10 12.68C422.23 12.68 422.38 12.66 422.38 12.49C422.38 12.07 422.42 11.23 422.42 10.53C422.42 10.39 422.27 10.39 422.14 10.39C422.03 10.39 421.90 10.39 421.90 10.51C421.89 11.06 421.89 11.41 421.86 11.76C421.83 12.01 421.83 12.04 421.74 12.04C421.58 12.04 418.95 12.08 417.45 12.08C417.38 12.08 417.34 10.11 417.30 8.26C417.30 8.06 417.34 8.09 417.48 8.09L419.76 8.09C420.46 8.09 420.49 8.20 420.49 8.30L420.49 9.00C420.49 9.14 420.67 9.14 420.78 9.14C420.88 9.14 421.01 9.13 421.01 9.02C421.01 8.83 420.98 8.33 420.98 7.83C420.98 7.32 421.01 6.83 421.01 6.71C421.01 6.59 420.87 6.58 420.77 6.58C420.66 6.58 420.49 6.59 420.49 6.72L420.49 7.45C420.49 7.62 420.04 7.63 419.76 7.63L417.42 7.63C417.31 7.63 417.30 7.63 417.30 7.45C417.28 6.75 417.27 6.06 417.27 5.46C417.27 5.12 417.27 3.71 417.35 3.71C418.59 3.71 421.09 3.75 421.09 3.81C421.09 3.99 421.05 4.83 421.05 4.89C421.05 5.04 421.12 5.10 421.30 5.10C421.50 5.10 421.57 5.08 421.57 4.94C421.57 3.85 421.62 3.36 421.62 3.09C421.62 2.91 421.54 2.90 421.34 2.90C421.15 2.90 421.15 2.95 421.12 3.11C421.11 3.25 421.18 3.25 420.27 3.25C419.65 3.25 417.51 3.29 416.74 3.29C416.25 3.29 415.31 3.25 415.21 3.25C415.09 3.25 415.03 3.30 415.03 3.49C415.03 3.72 415.10 3.74 415.27 3.74L415.93 3.74C415.98 3.74 416.05 4.79 416.05 5.71C416.05 5.80 416.11 8.27 416.11 9.83L416.11 11.17C416.11 11.84 416.08 12.18 416.05 12.18L415.20 12.18C414.97 12.18 414.92 12.21 414.92 12.39ZM430.32 12.46C430.32 12.63 430.33 12.70 430.51 12.70C430.67 12.70 431.90 12.64 432.29 12.64C433.15 12.64 434.03 12.70 434.88 12.70C437.50 12.70 439.89 11.07 439.89 7.91C439.89 4.89 437.56 3.07 434.52 3.07C433.96 3.07 432.70 3.23 431.66 3.23C431.19 3.23 430.72 3.22 430.67 3.22C430.49 3.22 430.47 3.32 430.47 3.49C430.47 3.68 430.54 3.70 430.67 3.70L431.63 3.67C431.66 3.67 431.66 4.20 431.66 4.72C431.66 5.91 431.58 12.21 431.49 12.21L430.60 12.21C430.42 12.21 430.32 12.22 430.32 12.46ZM432.89 11.40C432.89 9.46 432.89 7.52 432.91 5.60C432.91 5.03 432.95 3.61 432.99 3.60C433.29 3.53 433.87 3.51 434.22 3.51C436.79 3.51 438.40 5.75 438.40 7.73C438.40 8.95 438.35 12.25 433.68 12.25C433.41 12.25 433.01 12.25 432.91 12.21C432.89 12.19 432.89 11.79 432.89 11.40Z"></path></g></svg>