<svg data-v-423bf9ae="" xmlns="http://www.w3.org/2000/svg" viewBox="0 0 349.6905598588686 185" class="iconAbove"><g data-v-423bf9ae="" id="2f204968-a1ad-457f-849e-715622cde6a5" fill="black" transform="matrix(4.885993591588033,0,0,4.885993591588033,-2.6384377742000424,120.1534626017453)"><path d="M9.90 7.16L9.90 7.16Q11.59 7.95 11.59 9.45L11.59 9.45Q11.59 10.79 10.54 11.67L10.54 11.67Q9.14 12.84 6.72 12.84L6.72 12.84Q4.92 12.84 3.39 12.16L3.39 12.16Q1.89 11.49 1.11 10.29L1.11 10.29Q0.54 9.43 0.54 8.87L0.54 8.87Q0.54 8.66 1.09 8.51L1.09 8.51Q1.64 9.29 3.06 9.84L3.06 9.84Q3.49 9.27 4.22 8.21Q4.95 7.15 5.36 6.56Q5.77 5.97 6.18 5.42L6.18 5.42Q7.09 4.21 7.76 3.59L7.76 3.59Q7.96 3.38 8.38 3.58L8.38 3.58Q8.49 3.62 8.56 3.68L8.56 3.68Q7.99 4.26 7.03 5.97L7.03 5.97Q7.66 6.12 8.13 6.12Q8.60 6.12 9.06 6.01Q9.53 5.91 9.91 5.70L9.91 5.70Q10.79 5.24 10.79 4.57L10.79 4.57Q10.79 3.27 8.80 2.78L8.80 2.78Q8.03 2.58 7.25 2.58Q6.47 2.58 5.79 2.68Q5.11 2.79 4.57 3.01L4.57 3.01Q3.40 3.51 3.40 4.43L3.40 4.43Q3.40 5.20 3.97 5.73L3.97 5.73Q3.35 6.39 2.98 6.39L2.98 6.39Q2.56 6.39 2.19 5.93L2.19 5.93Q1.81 5.46 1.81 4.90Q1.81 4.34 2.05 3.92Q2.28 3.49 2.69 3.16Q3.09 2.83 3.62 2.58Q4.15 2.34 4.74 2.17L4.74 2.17Q5.90 1.85 6.82 1.85Q7.75 1.85 8.36 1.93Q8.98 2.01 9.54 2.17Q10.10 2.34 10.58 2.58Q11.06 2.83 11.42 3.17L11.42 3.17Q12.16 3.88 12.16 4.87L12.16 4.87Q12.16 5.66 11.50 6.29L11.50 6.29Q10.90 6.87 9.90 7.16ZM4.63 10.30L4.63 10.30Q5.43 10.46 5.93 10.46Q6.42 10.46 6.76 10.44Q7.10 10.41 7.50 10.30Q7.90 10.19 8.19 9.99L8.19 9.99Q8.82 9.57 8.82 8.83L8.82 8.83Q8.82 8.11 8.09 7.66L8.09 7.66Q7.42 7.24 6.36 7.20L6.36 7.20Q6.13 7.62 5.91 8.05Q5.68 8.47 5.46 8.87L5.46 8.87Q5.00 9.72 4.63 10.30ZM17.92 3.16L17.92 3.16Q18.68 3.16 18.68 4.44L18.68 4.44Q18.68 6.13 16.63 8.00L16.63 8.00Q15.85 8.72 14.98 9.24L14.98 9.24Q15.07 10.29 15.76 10.45L15.76 10.45Q15.98 10.49 16.27 10.49Q16.57 10.49 16.92 10.41Q17.26 10.34 17.60 10.16L17.60 10.16Q18.36 9.77 18.87 9.00L18.87 9.00Q19.17 8.98 19.17 9.25L19.17 9.25Q19.17 9.36 19.03 9.71Q18.88 10.06 18.48 10.61Q18.09 11.17 17.53 11.62L17.53 11.62Q16.26 12.66 14.71 12.66L14.71 12.66Q12.92 12.66 12.54 11.13L12.54 11.13Q12.42 10.65 12.42 10.06Q12.42 9.47 12.60 8.87Q12.78 8.26 13.08 7.67Q13.38 7.08 13.78 6.51Q14.18 5.95 14.63 5.45Q15.07 4.95 15.54 4.53Q16.00 4.11 16.44 3.80L16.44 3.80Q17.38 3.16 17.92 3.16ZM14.98 8.42L14.98 8.42Q16.13 7.70 16.92 6.69L16.92 6.69Q17.72 5.67 17.72 4.89L17.72 4.89Q17.72 4.50 17.55 4.33L17.55 4.33Q17.50 4.27 17.36 4.27Q17.23 4.27 16.98 4.45Q16.73 4.62 16.47 4.92Q16.21 5.22 15.97 5.63Q15.72 6.04 15.51 6.49L15.51 6.49Q15.06 7.53 14.98 8.42ZM22.03 11.57L22.03 11.57Q21.10 12.66 19.75 12.66L19.75 12.66Q18.89 12.66 18.38 12.15L18.38 12.15Q17.88 11.64 17.88 10.81L17.88 10.81Q17.88 9.77 18.70 8.78L18.70 8.78Q19.49 7.83 20.77 7.23L20.77 7.23Q22.11 6.60 23.53 6.60L23.53 6.60Q24.07 6.60 24.30 6.77L24.30 6.77Q24.49 6.56 24.63 6.52Q24.78 6.48 24.86 6.48L24.86 6.48Q25.12 6.48 25.42 6.56L25.42 6.56Q25.39 6.64 25.30 6.86Q25.21 7.08 25.10 7.37Q24.99 7.66 24.87 8.01L24.87 8.01Q24.42 9.26 24.42 9.87Q24.42 10.49 24.81 10.49L24.81 10.49Q25.32 10.49 25.94 10.04L25.94 10.04Q26.50 9.62 26.91 9.00L26.91 9.00Q27.22 8.98 27.22 9.25L27.22 9.25Q27.22 9.48 26.94 9.96Q26.65 10.44 26.39 10.79Q26.12 11.14 25.79 11.47Q25.46 11.81 25.09 12.07L25.09 12.07Q24.27 12.66 23.48 12.66L23.48 12.66Q22.48 12.66 22.14 12.06L22.14 12.06Q22.03 11.87 22.03 11.73Q22.03 11.59 22.03 11.57ZM20.08 9.70L20.08 9.70Q20.08 10.49 20.74 10.49L20.74 10.49Q21.47 10.49 22.46 9.31L22.46 9.31Q22.99 8.68 23.38 8.11Q23.78 7.53 23.98 7.23L23.98 7.23Q22.27 7.25 21.14 8.01L21.14 8.01Q20.08 8.74 20.08 9.70ZM31.27 7.70L31.27 7.70Q30.75 7.42 30.35 7.42Q29.95 7.42 29.62 7.60Q29.30 7.79 29.05 8.08L29.05 8.08Q28.53 8.70 28.53 9.46L28.53 9.46Q28.53 10.04 28.94 10.36L28.94 10.36Q29.32 10.68 30.05 10.68Q30.78 10.68 31.49 10.24Q32.20 9.81 32.73 9.00L32.73 9.00Q33.04 8.98 33.04 9.25L33.04 9.25Q33.04 9.36 32.87 9.76Q32.70 10.16 32.27 10.75Q31.83 11.33 31.25 11.79L31.25 11.79Q30.01 12.76 28.55 12.76L28.55 12.76Q27.36 12.76 26.69 12.15L26.69 12.15Q26.00 11.54 26.00 10.38L26.00 10.38Q26.00 9.48 26.71 8.57L26.71 8.57Q27.38 7.72 28.39 7.17L28.39 7.17Q29.42 6.61 30.32 6.61L30.32 6.61Q30.80 6.61 31.07 6.77L31.07 6.77Q31.53 7.06 31.53 7.32L31.53 7.32Q31.53 7.60 31.27 7.70ZM33.91 12.39L33.91 12.39Q33.91 12.66 33.44 12.66Q32.98 12.66 32.67 12.57Q32.36 12.48 32.18 12.27L32.18 12.27Q31.82 11.89 31.82 10.96L31.82 10.96Q31.82 9.47 33.35 7.24L33.35 7.24Q34.22 5.98 35.00 5.17Q35.77 4.37 36.21 3.99L36.21 3.99Q37.16 3.17 37.55 3.17L37.55 3.17Q37.82 3.17 38.07 3.42L38.07 3.42Q36.76 4.70 35.70 6.47L35.70 6.47Q35.31 7.12 34.98 7.85L34.98 7.85Q36.15 6.95 37.39 6.67L37.39 6.67Q37.78 6.58 38.12 6.58L38.12 6.58Q38.77 6.58 38.77 7.18L38.77 7.18Q38.77 7.75 38.07 8.52L38.07 8.52Q37.46 9.17 36.72 9.58L36.72 9.58Q36.87 10.02 37.06 10.26Q37.26 10.49 37.58 10.49Q37.90 10.49 38.19 10.37Q38.48 10.24 38.76 10.04L38.76 10.04Q39.31 9.62 39.73 9.00L39.73 9.00Q40.04 8.98 40.04 9.25L40.04 9.25Q40.04 9.47 39.75 9.96Q39.47 10.45 39.20 10.80Q38.92 11.16 38.58 11.50Q38.24 11.85 37.85 12.11L37.85 12.11Q36.98 12.72 36.13 12.72L36.13 12.72Q34.78 12.72 34.71 10.29L34.71 10.29Q34.70 9.96 34.69 9.68L34.69 9.68Q35.53 9.37 36.16 8.97Q36.79 8.57 37.05 8.37L37.05 8.37Q37.64 7.89 37.64 7.55L37.64 7.55Q37.64 7.40 37.47 7.40Q37.31 7.40 37.09 7.48Q36.87 7.55 36.60 7.67Q36.33 7.80 36.02 7.98Q35.72 8.16 35.42 8.37L35.42 8.37Q34.76 8.86 34.41 9.34L34.41 9.34Q33.93 10.86 33.91 12.39ZM44.70 10.99L44.70 10.99Q44.70 10.62 44.92 10.29Q45.13 9.96 45.49 9.64Q45.84 9.31 46.30 8.98Q46.76 8.64 47.26 8.25Q47.75 7.86 48.24 7.41Q48.73 6.95 49.13 6.38L49.13 6.38Q50.05 5.11 50.23 3.56L50.23 3.56Q48.11 3.75 47.40 3.95Q46.69 4.14 46.33 4.40Q45.97 4.66 45.97 4.98Q45.97 5.30 46.02 5.51Q46.07 5.71 46.14 5.87Q46.20 6.04 46.25 6.17Q46.30 6.30 46.30 6.40L46.30 6.40Q46.30 6.58 45.83 6.80L45.83 6.80Q45.41 7 45.22 7Q45.02 7 44.84 6.86Q44.67 6.72 44.50 6.49L44.50 6.49Q44.08 5.94 44.08 5.42Q44.08 4.90 44.34 4.54Q44.60 4.18 45.04 3.91Q45.48 3.64 46.07 3.47Q46.67 3.29 47.34 3.17Q48.01 3.04 48.72 2.97Q49.42 2.89 50.10 2.83Q50.78 2.78 51.38 2.72Q51.99 2.67 52.45 2.59L52.45 2.59Q53.46 2.43 53.51 2.15Q53.57 1.88 53.66 1.64Q53.76 1.41 53.89 1.22L53.89 1.22Q54.17 0.81 54.51 0.81Q54.84 0.81 55.06 1.15L55.06 1.15Q55.26 1.47 55.26 1.83Q55.26 2.19 55.10 2.40Q54.93 2.61 54.64 2.77Q54.35 2.93 53.95 3.05Q53.55 3.17 53.07 3.25L53.07 3.25Q52.33 3.38 51.00 3.49L51.00 3.49Q51.01 3.79 51.01 4.07Q51.01 4.35 51.00 4.75Q50.99 5.16 50.94 5.77Q50.89 6.38 50.81 6.98Q50.73 7.58 50.63 8.11L50.63 8.11Q50.44 9.20 50.25 9.65Q50.07 10.10 49.81 10.52Q49.56 10.94 49.26 11.31Q48.95 11.69 48.61 12.01Q48.27 12.34 47.91 12.58L47.91 12.58Q47.16 13.09 46.55 13.09L46.55 13.09Q45.95 13.09 45.32 12.40L45.32 12.40Q44.70 11.72 44.70 10.99ZM55.36 8.56L55.36 8.56Q54.54 8.52 53.97 8.39L53.97 8.39Q53.27 9.61 52.59 10.57L52.59 10.57Q52.50 10.71 52.19 10.64L52.19 10.64Q51.63 10.52 51.54 10.36L51.54 10.36Q52.76 9.50 53.25 8.16L53.25 8.16Q52.53 7.83 52.53 7.23L52.53 7.23Q52.53 6.86 53.02 6.29L53.02 6.29Q53.48 5.73 53.70 5.73L53.70 5.73Q54.37 5.73 54.71 6.07L54.71 6.07Q54.85 6.20 54.85 6.42Q54.85 6.63 54.62 7.14L54.62 7.14Q55.67 7.65 57.27 7.74L57.27 7.74Q57.22 8.21 56.88 8.50L56.88 8.50Q56.78 8.59 56.68 8.59L56.68 8.59Q56.20 9.03 56 9.54L56 9.54Q55.94 9.71 55.94 9.86L55.94 9.86Q55.94 10.49 56.70 10.49L56.70 10.49Q57.21 10.49 57.83 10.04L57.83 10.04Q58.39 9.62 58.80 9.00L58.80 9.00Q59.11 8.98 59.11 9.25L59.11 9.25Q59.11 9.48 58.83 9.96Q58.54 10.44 58.28 10.79Q58.01 11.14 57.68 11.47Q57.35 11.81 56.98 12.07L56.98 12.07Q56.16 12.66 55.36 12.66L55.36 12.66Q54.02 12.66 53.56 11.83L53.56 11.83Q53.40 11.55 53.40 11.17Q53.40 10.80 53.56 10.44Q53.71 10.08 53.98 9.73L53.98 9.73Q54.52 9.02 55.36 8.56ZM60.53 9.97L60.53 9.97Q60.92 10.68 62.32 10.68L62.32 10.68Q63.20 10.68 63.97 10.26Q64.75 9.83 65.30 9.00L65.30 9.00Q65.61 8.98 65.61 9.25L65.61 9.25Q65.61 9.56 65.25 10.13Q64.88 10.71 64.56 11.07Q64.24 11.42 63.85 11.73Q63.46 12.03 63.01 12.25L63.01 12.25Q62.03 12.73 60.95 12.73L60.95 12.73Q58.78 12.73 58.13 11.53L58.13 11.53Q57.89 11.09 57.89 10.52Q57.89 9.96 58.09 9.49Q58.28 9.02 58.63 8.59Q58.97 8.16 59.44 7.80Q59.91 7.44 60.46 7.18L60.46 7.18Q61.64 6.61 62.86 6.61L62.86 6.61Q63.75 6.61 64.07 7.16L64.07 7.16Q64.19 7.36 64.19 7.67Q64.19 7.99 64.03 8.30Q63.87 8.61 63.59 8.86Q63.32 9.11 62.96 9.29Q62.60 9.48 62.19 9.62L62.19 9.62Q61.46 9.86 60.53 9.97ZM60.43 9.34L60.43 9.34Q61.30 9.24 61.93 8.85L61.93 8.85Q62.60 8.44 62.60 7.89Q62.60 7.34 62.09 7.34L62.09 7.34Q61.43 7.34 60.95 7.97L60.95 7.97Q60.48 8.57 60.43 9.34ZM67.03 9.97L67.03 9.97Q67.42 10.68 68.82 10.68L68.82 10.68Q69.70 10.68 70.48 10.26Q71.25 9.83 71.80 9.00L71.80 9.00Q72.11 8.98 72.11 9.25L72.11 9.25Q72.11 9.56 71.75 10.13Q71.38 10.71 71.06 11.07Q70.75 11.42 70.35 11.73Q69.96 12.03 69.51 12.25L69.51 12.25Q68.53 12.73 67.45 12.73L67.45 12.73Q65.28 12.73 64.63 11.53L64.63 11.53Q64.39 11.09 64.39 10.52Q64.39 9.96 64.59 9.49Q64.78 9.02 65.13 8.59Q65.47 8.16 65.94 7.80Q66.41 7.44 66.96 7.18L66.96 7.18Q68.14 6.61 69.36 6.61L69.36 6.61Q70.25 6.61 70.57 7.16L70.57 7.16Q70.69 7.36 70.69 7.67Q70.69 7.99 70.53 8.30Q70.37 8.61 70.10 8.86Q69.82 9.11 69.46 9.29Q69.10 9.48 68.69 9.62L68.69 9.62Q67.96 9.86 67.03 9.97ZM66.93 9.34L66.93 9.34Q67.81 9.24 68.43 8.85L68.43 8.85Q69.10 8.44 69.10 7.89Q69.10 7.34 68.59 7.34L68.59 7.34Q67.94 7.34 67.45 7.97L67.45 7.97Q66.99 8.57 66.93 9.34Z"></path></g><g data-v-423bf9ae="" id="6aff6f71-62d0-432f-ba48-3917d756e7d8" transform="matrix(1.1111111111111112,0,0,1.1111111111111112,120.07000350952148,0.44444444444444287)" stroke="none" fill="black"><path d="M39.756 19.322c-.258 9.204 6.01 13.098 8.114 14.084.582-1.917 1.104-6.62-.311-15.014C45.389 5.556 49.748 0 49.748 0c-4.329 3.254-9.763 10.945-9.992 19.322"></path><path d="M53.016 11.76c-1.279-2.254-2.488-4.385-2.769-6.55-.261-1.993-.266-3.719-.119-5.2 0 0-3.737 5.703-1.016 18.461 1.702 7.973 1.143 12.649.656 14.736 2-1.109 6.609-4.446 6.699-11.623.051-3.656-1.733-6.793-3.451-9.824M21.98 38.628c6.328 6.689 13.516 5.012 15.701 4.22-.941-1.764-3.9-5.463-10.837-10.396-10.614-7.545-11.456-14.55-11.456-14.55-.762 5.358.834 14.638 6.592 20.726"></path><path d="M26.013 23.908c-2.498-.693-4.859-1.346-6.591-2.677-1.595-1.227-2.818-2.44-3.76-3.592 0 0 1.389 6.671 12.337 13.771 6.842 4.437 9.75 8.135 10.882 9.958.63-2.201 1.535-7.818-3.477-12.955-2.554-2.623-6.03-3.58-9.391-4.505M23.343 63.507c9.204.257 13.098-6.016 14.084-8.116-1.915-.58-6.619-1.105-15.016.312-12.836 2.168-18.389-2.192-18.389-2.192 3.252 4.329 10.942 9.764 19.321 9.996"></path><path d="M15.786 50.245c-2.26 1.274-4.388 2.487-6.559 2.77-1.989.263-3.715.263-5.199.118 0 0 5.705 3.736 18.463 1.016 7.975-1.703 12.649-1.145 14.738-.655-1.114-1.999-4.448-6.611-11.622-6.699-3.659-.05-6.794 1.728-9.821 3.45M64.965 23.748c-6.689 6.326-5.013 13.517-4.221 15.697 1.768-.942 5.464-3.9 10.395-10.833 7.545-10.613 14.553-11.459 14.553-11.459-5.358-.761-14.637.837-20.727 6.595"></path><path d="M79.688 27.781c.692-2.502 1.344-4.861 2.677-6.595 1.223-1.595 2.438-2.817 3.589-3.758 0 0-6.671 1.387-13.771 12.337-4.435 6.84-8.136 9.75-9.958 10.883 2.201.627 7.82 1.53 12.957-3.48 2.623-2.555 3.58-6.027 4.506-9.387M76.07 44.44c-9.207-.259-13.102 6.012-14.086 8.115 1.914.582 6.621 1.105 15.016-.313 12.836-2.166 18.391 2.188 18.391 2.188-3.252-4.325-10.944-9.76-19.321-9.99"></path><path d="M83.629 57.703c2.256-1.279 4.389-2.49 6.557-2.77 1.991-.26 3.716-.268 5.197-.119 0 0-5.704-3.738-18.466-1.016-7.973 1.703-12.644 1.145-14.736.656 1.114 1.996 4.444 6.605 11.623 6.697 3.661.048 6.796-1.727 9.825-3.448M58.738 12.367c-1.891 4.583.518 7.748 1.389 8.645.662-.851 1.823-3.119 2.718-7.619 1.363-6.88 4.622-8.839 4.622-8.839-2.8.806-7.011 3.64-8.729 7.813"></path><path d="M66.861 11.1c-.211-1.382-.412-2.686-.141-3.832.249-1.054.576-1.923.933-2.639 0 0-2.973 2.154-4.042 9.103-.67 4.336-1.844 6.585-2.49 7.542 1.221-.177 4.18-.973 5.598-4.569.723-1.83.429-3.748.142-5.605M27.801 15.622c1.905 4.577 5.845 5.106 7.096 5.126-.137-1.071-.917-3.5-3.468-7.309-3.897-5.83-2.98-9.518-2.98-9.518-1.41 2.553-2.386 7.532-.648 11.701"></path><path d="M32.648 8.978c-1.125-.829-2.192-1.608-2.808-2.612a12.3 12.3 0 0 1-1.206-2.523s-.577 3.624 3.577 9.291c2.598 3.545 3.353 5.964 3.574 7.101.736-.99 2.268-3.645.729-7.189-.787-1.812-2.349-2.958-3.866-4.068M10.44 44.092c4.585 1.889 7.742-.525 8.644-1.394-.853-.658-3.121-1.819-7.618-2.715-6.88-1.368-8.841-4.622-8.841-4.622.808 2.8 3.64 7.008 7.815 8.731"></path><path d="M9.173 35.965c-1.384.213-2.687.414-3.833.143a12.3 12.3 0 0 1-2.639-.937s2.154 2.97 9.103 4.042c4.338.671 6.584 1.844 7.545 2.489-.181-1.216-.975-4.176-4.574-5.595-1.829-.721-3.747-.43-5.602-.142M85.596 33.041c-4.576 1.904-5.109 5.842-5.129 7.096 1.072-.138 3.498-.92 7.311-3.466 5.83-3.904 9.52-2.984 9.52-2.984-2.556-1.411-7.53-2.384-11.702-.646"></path><path d="M92.24 37.888c.827-1.126 1.605-2.19 2.609-2.809a12 12 0 0 1 2.525-1.203s-3.625-.58-9.295 3.571c-3.54 2.599-5.959 3.356-7.094 3.578.984.739 3.643 2.267 7.188.726 1.811-.786 2.957-2.349 4.067-3.863M47.499 68.297c1.506-1.159 3.108-2.53 4.459-4.012 3.798-4.164 5.503-10.854 5.503-10.854l-.748-.719s-2.752 6.33-7.165 9.836a29 29 0 0 1-2.295 1.629c-.515-13.339 1.769-23.413 2.434-26.026l-1.887-.62s-5.425 13.624-5.375 32.386C42.465 84.834 48.562 100 48.562 100l8.15-.417s-7.546-14.501-9.041-29.34a98 98 0 0 1-.172-1.946"></path></g></svg>